ffmpeg version N-82167-g5e96558 Copyright (c) 2000-2016 the FFmpeg developers
  built with gcc 5.4.0 (Ubuntu 5.4.0-6ubuntu1~16.04.2) 20160609
  configuration: --prefix=/root/ffmpeg_build --pkg-config-flags=--static --extra-cflags=-I/root/ffmpeg_build/include --extra-ldflags=-L/root/ffmpeg_build/lib --bindir=/root/bin --enable-gpl --enable-libass --enable-libfdk-aac --enable-libfreetype --enable-libmp3lame --enable-libopus --enable-libtheora --enable-libvorbis --enable-libx264 --enable-libx265 --enable-nonfree
  libavutil      55. 35.100 / 55. 35.100
  libavcodec     57. 65.100 / 57. 65.100
  libavformat    57. 57.100 / 57. 57.100
  libavdevice    57.  2.100 / 57.  2.100
  libavfilter     6. 66.100 /  6. 66.100
  libswscale      4.  3.100 /  4.  3.100
  libswresample   2.  4.100 /  2.  4.100
  libpostproc    54.  2.100 / 54.  2.100
Input #0, matroska,webm, from '/media/yubikiri/bot/queue/3AnimePahe_Detective_Conan_-_049v2_720p_Fansub.mkv':
  Metadata:
    title           : 3|Text||0|0
    ALBUM           : Anime
    LANGUAGE        : Undefined
    ENCODER         : Lavf57.57.100
  Duration: 00:24:27.68, start: 0.000000, bitrate: 977 kb/s
    Stream #0:0: Video: mpeg4 (Advanced Simple Profile), yuv420p, 640x480 [SAR 1:1 DAR 4:3], 23.98 fps, 23.98 tbr, 1k tbn, 23.98 tbc (default)
    Metadata:
      DURATION        : 00:24:27.675000000
    Stream #0:1: Audio: mp3, 48000 Hz, stereo, s16p, 128 kb/s (default)
    Metadata:
      DURATION        : 00:24:27.624000000
[libx264 @ 0x2a782a0] using SAR=1/1
[libx264 @ 0x2a782a0] using cpu capabilities: MMX2 SSE2Fast SSSE3 SSE4.2 AVX FMA3 AVX2 LZCNT BMI2
[libx264 @ 0x2a782a0] profile High, level 3.1
[libx264 @ 0x2a782a0] 264 - core 148 r2643 5c65704 - H.264/MPEG-4 AVC codec - Copyleft 2003-2015 - http://www.videolan.org/x264.html - options: cabac=1 ref=8 deblock=1:1:1 analyse=0x3:0x133 me=umh subme=7 psy=1 psy_rd=0.00:0.00 mixed_ref=1 me_range=8 chroma_me=1 trellis=0 8x8dct=1 cqm=0 deadzone=21,11 fast_pskip=1 chroma_qp_offset=0 threads=8 lookahead_threads=2 sliced_threads=0 nr=0 decimate=1 interlaced=0 bluray_compat=0 constrained_intra=0 bframes=3 b_pyramid=2 b_adapt=2 b_bias=0 direct=1 weightb=1 open_gop=0 weightp=2 keyint=240 keyint_min=24 scenecut=40 intra_refresh=0 rc_lookahead=60 rc=crf mbtree=1 crf=27.0 qcomp=0.60 qpmin=0 qpmax=69 qpstep=4 ip_ratio=1.40 aq=1:1.00
[libfdk_aac @ 0x2a0bac0] Note, the VBR setting is unsupported and only works with some parameter combinations
Output #0, mp4, to '/media/yubikiri/bot/queue/3AnimePahe_Detective_Conan_-_049v2_720p_Fansub.mkv_encoded.mp4':
  Metadata:
    encoder         : Lavf57.57.100
    Stream #0:0: Video: h264 (libx264) ([33][0][0][0] / 0x0021), yuv420p, 640x480 [SAR 1:1 DAR 4:3], q=-1--1, 23.98 fps, 24k tbn, 23.98 tbc (default)
    Metadata:
      encoder         : Lavc57.65.100 libx264
    Side data:
      cpb: bitrate max/min/avg: 0/0/0 buffer size: 0 vbv_delay: -1
    Stream #0:1: Audio: aac (libfdk_aac) (HE-AACv2) ([64][0][0][0] / 0x0040), 48000 Hz, stereo, s16, 48 kb/s (default)
    Metadata:
      encoder         : Lavc57.65.100 libfdk_aac
Stream mapping:
  Stream #0:0 -> #0:0 (mpeg4 (native) -> h264 (libx264))
  Stream #0:1 -> #0:1 (mp3 (native) -> aac (libfdk_aac))
Press [q] to stop, [?] for help
frame=  111 fps=0.0 q=32.0 size=     108kB time=00:00:04.80 bitrate= 184.4kbits/s dup=1 drop=0 speed=9.56x    frame=  163 fps=162 q=32.0 size=     269kB time=00:00:06.97 bitrate= 316.1kbits/s dup=1 drop=0 speed=6.96x    frame=  217 fps=144 q=32.0 size=     452kB time=00:00:09.19 bitrate= 402.6kbits/s dup=1 drop=0 speed=6.09x    frame=  293 fps=145 q=32.0 size=     595kB time=00:00:12.39 bitrate= 393.2kbits/s dup=1 drop=0 speed=6.14x    frame=  333 fps=132 q=32.0 size=     756kB time=00:00:14.05 bitrate= 440.2kbits/s dup=1 drop=0 speed=5.58x    frame=  393 fps=129 q=32.0 size=     887kB time=00:00:16.57 bitrate= 438.4kbits/s dup=1 drop=0 speed=5.44x    frame=  469 fps=132 q=32.0 size=    1032kB time=00:00:19.73 bitrate= 428.5kbits/s dup=1 drop=0 speed=5.55x    frame=  525 fps=130 q=32.0 size=    1199kB time=00:00:22.03 bitrate= 445.6kbits/s dup=1 drop=0 speed=5.44x    frame=  582 fps=128 q=32.0 size=    1315kB time=00:00:24.42 bitrate= 441.0kbits/s dup=1 drop=0 speed=5.36x    frame=  642 fps=127 q=32.0 size=    1492kB time=00:00:26.94 bitrate= 453.7kbits/s dup=1 drop=0 speed=5.33x    frame=  712 fps=127 q=32.0 size=    1606kB time=00:00:29.84 bitrate= 440.8kbits/s dup=1 drop=0 speed=5.34x    frame=  766 fps=126 q=32.0 size=    1737kB time=00:00:32.10 bitrate= 443.3kbits/s dup=1 drop=0 speed=5.27x    frame=  811 fps=123 q=32.0 size=    1879kB time=00:00:33.98 bitrate= 452.8kbits/s dup=1 drop=0 speed=5.15x    frame=  869 fps=122 q=32.0 size=    2020kB time=00:00:36.41 bitrate= 454.3kbits/s dup=1 drop=0 speed=5.13x    frame=  903 fps=119 q=32.0 size=    2137kB time=00:00:37.82 bitrate= 462.9kbits/s dup=1 drop=0 speed=4.98x    frame=  940 fps=116 q=32.0 size=    2290kB time=00:00:39.36 bitrate= 476.7kbits/s dup=1 drop=0 speed=4.85x    frame=  989 fps=115 q=32.0 size=    2441kB time=00:00:41.40 bitrate= 482.9kbits/s dup=1 drop=0 speed=4.81x    frame= 1068 fps=117 q=32.0 size=    2577kB time=00:00:44.69 bitrate= 472.3kbits/s dup=1 drop=0 speed=4.88x    frame= 1121 fps=116 q=32.0 size=    2717kB time=00:00:46.91 bitrate= 474.5kbits/s dup=1 drop=0 speed=4.85x    frame= 1184 fps=116 q=32.0 size=    2830kB time=00:00:49.51 bitrate= 468.2kbits/s dup=1 drop=0 speed=4.86x    frame= 1255 fps=117 q=32.0 size=    2941kB time=00:00:52.50 bitrate= 458.9kbits/s dup=1 drop=0 speed=4.92x    frame= 1333 fps=119 q=32.0 size=    3090kB time=00:00:55.74 bitrate= 454.0kbits/s dup=1 drop=0 speed=4.98x    frame= 1395 fps=119 q=32.0 size=    3229kB time=00:00:58.34 bitrate= 453.3kbits/s dup=1 drop=0 speed=4.99x    frame= 1451 fps=119 q=32.0 size=    3370kB time=00:01:00.65 bitrate= 455.2kbits/s dup=1 drop=0 speed=4.96x    frame= 1510 fps=119 q=32.0 size=    3508kB time=00:01:03.12 bitrate= 455.2kbits/s dup=1 drop=0 speed=4.96x    frame= 1564 fps=118 q=32.0 size=    3635kB time=00:01:05.38 bitrate= 455.4kbits/s dup=1 drop=0 speed=4.92x    frame= 1621 fps=117 q=32.0 size=    3769kB time=00:01:07.77 bitrate= 455.5kbits/s dup=1 drop=0 speed= 4.9x    frame= 1695 fps=118 q=32.0 size=    3897kB time=00:01:10.84 bitrate= 450.6kbits/s dup=1 drop=0 speed=4.94x    frame= 1760 fps=119 q=32.0 size=    4014kB time=00:01:13.57 bitrate= 446.9kbits/s dup=1 drop=0 speed=4.96x    frame= 1825 fps=118 q=32.0 size=    4135kB time=00:01:16.26 bitrate= 444.2kbits/s dup=1 drop=0 speed=4.93x    frame= 1876 fps=117 q=32.0 size=    4235kB time=00:01:18.40 bitrate= 442.5kbits/s dup=1 drop=0 speed=4.91x    frame= 1921 fps=117 q=32.0 size=    4321kB time=00:01:20.27 bitrate= 440.9kbits/s dup=1 drop=0 speed=4.87x    frame= 1959 fps=115 q=32.0 size=    4397kB time=00:01:21.85 bitrate= 440.0kbits/s dup=1 drop=0 speed=4.82x    frame= 2004 fps=115 q=32.0 size=    4501kB time=00:01:23.73 bitrate= 440.3kbits/s dup=1 drop=0 speed=4.79x    frame= 2074 fps=115 q=32.0 size=    4619kB time=00:01:26.67 bitrate= 436.5kbits/s dup=1 drop=0 speed=4.82x    frame= 2122 fps=115 q=32.0 size=    4690kB time=00:01:28.64 bitrate= 433.5kbits/s dup=1 drop=0 speed=4.79x    frame= 2160 fps=114 q=32.0 size=    4775kB time=00:01:30.21 bitrate= 433.5kbits/s dup=1 drop=0 speed=4.74x    frame= 2218 fps=113 q=32.0 size=    4847kB time=00:01:32.65 bitrate= 428.5kbits/s dup=1 drop=0 speed=4.74x    frame= 2261 fps=113 q=32.0 size=    4966kB time=00:01:34.44 bitrate= 430.7kbits/s dup=1 drop=0 speed= 4.7x    frame= 2308 fps=112 q=32.0 size=    5068kB time=00:01:36.40 bitrate= 430.6kbits/s dup=1 drop=0 speed=4.69x    frame= 2382 fps=113 q=32.0 size=    5194kB time=00:01:39.47 bitrate= 427.8kbits/s dup=1 drop=0 speed=4.72x    frame= 2425 fps=112 q=32.0 size=    5277kB time=00:01:41.31 bitrate= 426.7kbits/s dup=1 drop=0 speed=4.69x    frame= 2477 fps=112 q=32.0 size=    5356kB time=00:01:43.44 bitrate= 424.1kbits/s dup=1 drop=0 speed=4.68x    frame= 2544 fps=112 q=32.0 size=    5459kB time=00:01:46.26 bitrate= 420.8kbits/s dup=1 drop=0 speed= 4.7x    frame= 2605 fps=113 q=32.0 size=    5629kB time=00:01:48.82 bitrate= 423.7kbits/s dup=1 drop=0 speed= 4.7x    frame= 2665 fps=113 q=32.0 size=    5731kB time=00:01:51.33 bitrate= 421.6kbits/s dup=1 drop=0 speed=4.71x    frame= 2717 fps=113 q=32.0 size=    5832kB time=00:01:53.47 bitrate= 421.0kbits/s dup=1 drop=0 speed= 4.7x    frame= 2771 fps=112 q=32.0 size=    5928kB time=00:01:55.73 bitrate= 419.6kbits/s dup=1 drop=0 speed= 4.7x    frame= 2841 fps=113 q=32.0 size=    6068kB time=00:01:58.63 bitrate= 419.0kbits/s dup=1 drop=0 speed=4.72x    frame= 2909 fps=113 q=32.0 size=    6185kB time=00:02:01.49 bitrate= 417.0kbits/s dup=1 drop=0 speed=4.74x    frame= 2968 fps=113 q=32.0 size=    6278kB time=00:02:03.96 bitrate= 414.9kbits/s dup=1 drop=0 speed=4.74x    frame= 3016 fps=113 q=32.0 size=    6459kB time=00:02:05.97 bitrate= 420.0kbits/s dup=1 drop=0 speed=4.73x    frame= 3075 fps=113 q=32.0 size=    6626kB time=00:02:08.40 bitrate= 422.7kbits/s dup=1 drop=0 speed=4.73x    frame= 3145 fps=114 q=32.0 size=    6757kB time=00:02:11.30 bitrate= 421.5kbits/s dup=1 drop=0 speed=4.75x    frame= 3205 fps=114 q=32.0 size=    6843kB time=00:02:13.82 bitrate= 418.9kbits/s dup=1 drop=0 speed=4.75x    frame= 3249 fps=113 q=32.0 size=    6981kB time=00:02:15.65 bitrate= 421.6kbits/s dup=1 drop=0 speed=4.72x    frame= 3339 fps=114 q=32.0 size=    7115kB time=00:02:19.41 bitrate= 418.1kbits/s dup=1 drop=0 speed=4.77x    frame= 3393 fps=114 q=32.0 size=    7208kB time=00:02:21.67 bitrate= 416.8kbits/s dup=1 drop=0 speed=4.76x    frame= 3444 fps=114 q=32.0 size=    7305kB time=00:02:23.80 bitrate= 416.1kbits/s dup=1 drop=0 speed=4.75x    frame= 3500 fps=114 q=32.0 size=    7405kB time=00:02:26.15 bitrate= 415.1kbits/s dup=1 drop=0 speed=4.75x    frame= 3587 fps=115 q=32.0 size=    7516kB time=00:02:29.73 bitrate= 411.2kbits/s dup=1 drop=0 speed=4.79x    frame= 3698 fps=116 q=32.0 size=    7595kB time=00:02:34.39 bitrate= 403.0kbits/s dup=1 drop=0 speed=4.86x    frame= 3787 fps=117 q=32.0 size=    7711kB time=00:02:38.10 bitrate= 399.5kbits/s dup=1 drop=0 speed= 4.9x    frame= 3872 fps=118 q=32.0 size=    7812kB time=00:02:41.64 bitrate= 395.9kbits/s dup=1 drop=0 speed=4.93x    frame= 3920 fps=118 q=32.0 size=    7920kB time=00:02:43.64 bitrate= 396.5kbits/s dup=1 drop=0 speed=4.92x    frame= 4010 fps=119 q=32.0 size=    7992kB time=00:02:47.40 bitrate= 391.1kbits/s dup=1 drop=0 speed=4.95x    frame= 4082 fps=119 q=32.0 size=    8091kB time=00:02:50.43 bitrate= 388.9kbits/s dup=1 drop=0 speed=4.97x    frame= 4143 fps=119 q=32.0 size=    8201kB time=00:02:52.95 bitrate= 388.4kbits/s dup=1 drop=0 speed=4.97x    frame= 4245 fps=120 q=32.0 size=    8266kB time=00:02:57.21 bitrate= 382.1kbits/s dup=1 drop=0 speed=5.02x    frame= 4340 fps=121 q=32.0 size=    8366kB time=00:03:01.18 bitrate= 378.2kbits/s dup=1 drop=0 speed=5.06x    frame= 4406 fps=121 q=32.0 size=    8437kB time=00:03:03.91 bitrate= 375.8kbits/s dup=1 drop=0 speed=5.06x    frame= 4456 fps=121 q=32.0 size=    8536kB time=00:03:06.00 bitrate= 375.9kbits/s dup=1 drop=0 speed=5.05x    frame= 4508 fps=121 q=32.0 size=    8633kB time=00:03:08.18 bitrate= 375.8kbits/s dup=1 drop=0 speed=5.04x    frame= 4607 fps=122 q=32.0 size=    8707kB time=00:03:12.32 bitrate= 370.9kbits/s dup=1 drop=0 speed=5.08x    frame= 4701 fps=122 q=32.0 size=    8828kB time=00:03:16.20 bitrate= 368.6kbits/s dup=1 drop=0 speed=5.11x    frame= 4803 fps=124 q=32.0 size=    8912kB time=00:03:20.51 bitrate= 364.1kbits/s dup=1 drop=0 speed=5.16x    frame= 4909 fps=125 q=32.0 size=    9022kB time=00:03:24.90 bitrate= 360.7kbits/s dup=1 drop=0 speed= 5.2x    frame= 4995 fps=125 q=32.0 size=    9157kB time=00:03:28.49 bitrate= 359.8kbits/s dup=1 drop=0 speed=5.22x    frame= 5085 fps=126 q=32.0 size=    9278kB time=00:03:32.24 bitrate= 358.1kbits/s dup=1 drop=0 speed=5.25x    frame= 5167 fps=126 q=32.0 size=    9339kB time=00:03:35.65 bitrate= 354.8kbits/s dup=1 drop=0 speed=5.27x    frame= 5267 fps=127 q=32.0 size=    9441kB time=00:03:39.84 bitrate= 351.8kbits/s dup=1 drop=0 speed=5.31x    frame= 5353 fps=128 q=32.0 size=    9527kB time=00:03:43.42 bitrate= 349.3kbits/s dup=1 drop=0 speed=5.33x    frame= 5415 fps=128 q=32.0 size=    9658kB time=00:03:45.98 bitrate= 350.1kbits/s dup=1 drop=0 speed=5.32x    frame= 5517 fps=128 q=32.0 size=    9760kB time=00:03:50.25 bitrate= 347.2kbits/s dup=1 drop=0 speed=5.36x    frame= 5615 fps=129 q=32.0 size=    9831kB time=00:03:54.34 bitrate= 343.6kbits/s dup=1 drop=0 speed=5.39x    frame= 5685 fps=129 q=32.0 size=    9960kB time=00:03:57.24 bitrate= 343.9kbits/s dup=1 drop=0 speed= 5.4x    frame= 5777 fps=130 q=32.0 size=   10073kB time=00:04:01.08 bitrate= 342.3kbits/s dup=1 drop=0 speed=5.42x    frame= 5868 fps=130 q=32.0 size=   10213kB time=00:04:04.88 bitrate= 341.6kbits/s dup=1 drop=0 speed=5.45x    frame= 5967 fps=131 q=32.0 size=   10294kB time=00:04:09.02 bitrate= 338.6kbits/s dup=1 drop=0 speed=5.48x    frame= 6081 fps=132 q=32.0 size=   10404kB time=00:04:13.76 bitrate= 335.9kbits/s dup=1 drop=0 speed=5.52x    frame= 6167 fps=133 q=32.0 size=   10493kB time=00:04:17.38 bitrate= 334.0kbits/s dup=1 drop=0 speed=5.54x    frame= 6241 fps=133 q=32.0 size=   10586kB time=00:04:20.45 bitrate= 333.0kbits/s dup=1 drop=0 speed=5.55x    frame= 6303 fps=133 q=32.0 size=   10665kB time=00:04:23.01 bitrate= 332.2kbits/s dup=1 drop=0 speed=5.54x    frame= 6358 fps=133 q=32.0 size=   10761kB time=00:04:25.32 bitrate= 332.3kbits/s dup=1 drop=0 speed=5.53x    frame= 6462 fps=133 q=32.0 size=   10837kB time=00:04:29.67 bitrate= 329.2kbits/s dup=1 drop=0 speed=5.56x    frame= 6542 fps=134 q=32.0 size=   10949kB time=00:04:33.00 bitrate= 328.5kbits/s dup=1 drop=0 speed=5.57x    frame= 6623 fps=134 q=32.0 size=   11047kB time=00:04:36.37 bitrate= 327.5kbits/s dup=1 drop=0 speed=5.59x    frame= 6715 fps=134 q=32.0 size=   11144kB time=00:04:40.21 bitrate= 325.8kbits/s dup=1 drop=0 speed=5.61x    frame= 6817 fps=135 q=32.0 size=   11227kB time=00:04:44.48 bitrate= 323.3kbits/s dup=1 drop=0 speed=5.63x    frame= 6879 fps=135 q=32.0 size=   11349kB time=00:04:47.04 bitrate= 323.9kbits/s dup=1 drop=0 speed=5.63x    frame= 6962 fps=135 q=32.0 size=   11428kB time=00:04:50.53 bitrate= 322.2kbits/s dup=1 drop=0 speed=5.64x    frame= 7058 fps=136 q=32.0 size=   11508kB time=00:04:54.50 bitrate= 320.1kbits/s dup=1 drop=0 speed=5.66x    frame= 7118 fps=136 q=32.0 size=   11643kB time=00:04:57.06 bitrate= 321.1kbits/s dup=1 drop=0 speed=5.66x    frame= 7167 fps=135 q=32.0 size=   11764kB time=00:04:59.07 bitrate= 322.2kbits/s dup=1 drop=0 speed=5.64x    frame= 7232 fps=135 q=32.0 size=   11864kB time=00:05:01.80 bitrate= 322.0kbits/s dup=1 drop=0 speed=5.64x    frame= 7331 fps=136 q=32.0 size=   11969kB time=00:05:05.94 bitrate= 320.5kbits/s dup=1 drop=0 speed=5.66x    frame= 7421 fps=136 q=32.0 size=   12078kB time=00:05:09.65 bitrate= 319.5kbits/s dup=1 drop=0 speed=5.68x    frame= 7502 fps=136 q=32.0 size=   12158kB time=00:05:13.06 bitrate= 318.1kbits/s dup=1 drop=0 speed=5.69x    frame= 7564 fps=136 q=32.0 size=   12223kB time=00:05:15.62 bitrate= 317.3kbits/s dup=1 drop=0 speed=5.68x    frame= 7622 fps=136 q=32.0 size=   12322kB time=00:05:18.05 bitrate= 317.4kbits/s dup=1 drop=0 speed=5.67x    frame= 7693 fps=136 q=32.0 size=   12400kB time=00:05:21.00 bitrate= 316.5kbits/s dup=1 drop=0 speed=5.67x    frame= 7758 fps=136 q=32.0 size=   12486kB time=00:05:23.77 bitrate= 315.9kbits/s dup=1 drop=0 speed=5.67x    frame= 7848 fps=136 q=32.0 size=   12592kB time=00:05:27.48 bitrate= 315.0kbits/s dup=1 drop=0 speed=5.68x    frame= 7948 fps=137 q=32.0 size=   12677kB time=00:05:31.67 bitrate= 313.1kbits/s dup=1 drop=0 speed=5.71x    frame= 8065 fps=138 q=32.0 size=   12768kB time=00:05:36.53 bitrate= 310.8kbits/s dup=1 drop=0 speed=5.74x    frame= 8180 fps=138 q=32.0 size=   12866kB time=00:05:41.31 bitrate= 308.8kbits/s dup=1 drop=0 speed=5.77x    frame= 8245 fps=138 q=32.0 size=   12979kB time=00:05:44.04 bitrate= 309.0kbits/s dup=1 drop=0 speed=5.77x    frame= 8320 fps=138 q=32.0 size=   13121kB time=00:05:47.20 bitrate= 309.6kbits/s dup=1 drop=0 speed=5.77x    frame= 8422 fps=139 q=32.0 size=   13255kB time=00:05:51.42 bitrate= 309.0kbits/s dup=1 drop=0 speed= 5.8x    frame= 8524 fps=139 q=32.0 size=   13399kB time=00:05:55.69 bitrate= 308.6kbits/s dup=1 drop=0 speed=5.81x    frame= 8632 fps=140 q=32.0 size=   13557kB time=00:06:00.17 bitrate= 308.3kbits/s dup=1 drop=0 speed=5.84x    frame= 8722 fps=140 q=32.0 size=   13661kB time=00:06:03.92 bitrate= 307.5kbits/s dup=1 drop=0 speed=5.85x    frame= 8826 fps=141 q=32.0 size=   13766kB time=00:06:08.32 bitrate= 306.2kbits/s dup=1 drop=0 speed=5.87x    frame= 8911 fps=141 q=32.0 size=   13869kB time=00:06:11.81 bitrate= 305.6kbits/s dup=1 drop=0 speed=5.88x    frame= 9015 fps=142 q=32.0 size=   13977kB time=00:06:16.12 bitrate= 304.4kbits/s dup=1 drop=0 speed= 5.9x    frame= 9076 fps=141 q=32.0 size=   14060kB time=00:06:18.68 bitrate= 304.1kbits/s dup=1 drop=0 speed= 5.9x    frame= 9139 fps=141 q=32.0 size=   14148kB time=00:06:21.33 bitrate= 303.9kbits/s dup=1 drop=0 speed=5.89x    frame= 9224 fps=141 q=32.0 size=   14246kB time=00:06:24.87 bitrate= 303.2kbits/s dup=1 drop=0 speed= 5.9x    frame= 9333 fps=142 q=32.0 size=   14324kB time=00:06:29.44 bitrate= 301.3kbits/s dup=1 drop=0 speed=5.92x    frame= 9404 fps=142 q=32.0 size=   14409kB time=00:06:32.38 bitrate= 300.8kbits/s dup=1 drop=0 speed=5.92x    frame= 9503 fps=142 q=32.0 size=   14509kB time=00:06:36.48 bitrate= 299.8kbits/s dup=1 drop=0 speed=5.94x    frame= 9630 fps=143 q=32.0 size=   14625kB time=00:06:41.81 bitrate= 298.2kbits/s dup=1 drop=0 speed=5.97x    frame= 9734 fps=144 q=32.0 size=   14730kB time=00:06:46.16 bitrate= 297.1kbits/s dup=1 drop=0 speed=5.99x    frame= 9841 fps=144 q=32.0 size=   14851kB time=00:06:50.60 bitrate= 296.3kbits/s dup=1 drop=0 speed=6.01x    frame= 9898 fps=144 q=32.0 size=   14953kB time=00:06:52.99 bitrate= 296.6kbits/s dup=1 drop=0 speed=   6x    frame=10009 fps=144 q=32.0 size=   15081kB time=00:06:57.64 bitrate= 295.8kbits/s dup=1 drop=0 speed=6.03x    frame=10108 fps=145 q=32.0 size=   15187kB time=00:07:01.73 bitrate= 295.0kbits/s dup=1 drop=0 speed=6.04x    frame=10199 fps=145 q=32.0 size=   15268kB time=00:07:05.53 bitrate= 293.9kbits/s dup=1 drop=0 speed=6.05x    frame=10249 fps=145 q=32.0 size=   15405kB time=00:07:07.67 bitrate= 295.1kbits/s dup=1 drop=0 speed=6.04x    frame=10315 fps=145 q=32.0 size=   15498kB time=00:07:10.40 bitrate= 295.0kbits/s dup=1 drop=0 speed=6.04x    frame=10388 fps=145 q=32.0 size=   15609kB time=00:07:13.43 bitrate= 295.0kbits/s dup=1 drop=0 speed=6.04x    frame=10435 fps=144 q=32.0 size=   15706kB time=00:07:15.39 bitrate= 295.5kbits/s dup=1 drop=0 speed=6.02x    frame=10515 fps=144 q=32.0 size=   15823kB time=00:07:18.72 bitrate= 295.5kbits/s dup=1 drop=0 speed=6.02x    frame=10593 fps=144 q=32.0 size=   15936kB time=00:07:21.96 bitrate= 295.4kbits/s dup=1 drop=0 speed=6.02x    frame=10650 fps=144 q=32.0 size=   16031kB time=00:07:24.35 bitrate= 295.5kbits/s dup=1 drop=0 speed=6.01x    frame=10711 fps=144 q=32.0 size=   16138kB time=00:07:26.91 bitrate= 295.8kbits/s dup=1 drop=0 speed=   6x    frame=10767 fps=144 q=32.0 size=   16212kB time=00:07:29.21 bitrate= 295.6kbits/s dup=1 drop=0 speed=5.99x    frame=10831 fps=144 q=32.0 size=   16286kB time=00:07:31.90 bitrate= 295.2kbits/s dup=1 drop=0 speed=5.99x    frame=10937 fps=144 q=32.0 size=   16390kB time=00:07:36.29 bitrate= 294.3kbits/s dup=1 drop=0 speed=6.01x    frame=11037 fps=144 q=32.0 size=   16475kB time=00:07:40.48 bitrate= 293.1kbits/s dup=1 drop=0 speed=6.02x    frame=11104 fps=144 q=32.0 size=   16564kB time=00:07:43.29 bitrate= 292.9kbits/s dup=1 drop=0 speed=6.02x    frame=11158 fps=144 q=32.0 size=   16622kB time=00:07:45.55 bitrate= 292.5kbits/s dup=1 drop=0 speed=6.01x    frame=11203 fps=144 q=32.0 size=   16692kB time=00:07:47.43 bitrate= 292.5kbits/s dup=1 drop=0 speed=5.99x    frame=11269 fps=144 q=32.0 size=   16813kB time=00:07:50.16 bitrate= 292.9kbits/s dup=1 drop=0 speed=5.99x    frame=11362 fps=144 q=32.0 size=   16897kB time=00:07:54.09 bitrate= 292.0kbits/s dup=1 drop=0 speed=   6x    frame=11472 fps=144 q=32.0 size=   17005kB time=00:07:58.61 bitrate= 291.1kbits/s dup=1 drop=0 speed=6.02x    frame=11584 fps=145 q=32.0 size=   17108kB time=00:08:03.30 bitrate= 290.0kbits/s dup=1 drop=0 speed=6.04x    frame=11654 fps=145 q=32.0 size=   17212kB time=00:08:06.25 bitrate= 290.0kbits/s dup=1 drop=0 speed=6.04x    frame=11750 fps=145 q=32.0 size=   17326kB time=00:08:10.21 bitrate= 289.5kbits/s dup=1 drop=0 speed=6.05x    frame=11869 fps=145 q=32.0 size=   17426kB time=00:08:15.21 bitrate= 288.3kbits/s dup=1 drop=0 speed=6.07x    frame=11985 fps=146 q=32.0 size=   17505kB time=00:08:20.03 bitrate= 286.8kbits/s dup=1 drop=0 speed=6.09x    frame=12103 fps=147 q=32.0 size=   17620kB time=00:08:24.93 bitrate= 285.9kbits/s dup=1 drop=0 speed=6.11x    frame=12225 fps=147 q=32.0 size=   17710kB time=00:08:30.05 bitrate= 284.4kbits/s dup=1 drop=0 speed=6.14x    frame=12311 fps=147 q=32.0 size=   17831kB time=00:08:33.64 bitrate= 284.4kbits/s dup=1 drop=0 speed=6.14x    frame=12389 fps=147 q=32.0 size=   17946kB time=00:08:36.88 bitrate= 284.4kbits/s dup=1 drop=0 speed=6.15x    frame=12490 fps=148 q=32.0 size=   18066kB time=00:08:41.06 bitrate= 284.0kbits/s dup=1 drop=0 speed=6.16x    frame=12598 fps=148 q=32.0 size=   18164kB time=00:08:45.59 bitrate= 283.1kbits/s dup=1 drop=0 speed=6.17x    frame=12694 fps=148 q=32.0 size=   18253kB time=00:08:49.60 bitrate= 282.3kbits/s dup=1 drop=0 speed=6.18x    frame=12750 fps=148 q=32.0 size=   18339kB time=00:08:51.94 bitrate= 282.4kbits/s dup=1 drop=0 speed=6.17x    frame=12808 fps=148 q=32.0 size=   18426kB time=00:08:54.33 bitrate= 282.5kbits/s dup=1 drop=0 speed=6.17x    frame=12903 fps=148 q=32.0 size=   18558kB time=00:08:58.30 bitrate= 282.4kbits/s dup=1 drop=0 speed=6.17x    frame=13009 fps=148 q=32.0 size=   18664kB time=00:09:02.74 bitrate= 281.7kbits/s dup=1 drop=0 speed=6.19x    frame=13095 fps=148 q=32.0 size=   18762kB time=00:09:06.32 bitrate= 281.3kbits/s dup=1 drop=0 speed=6.19x    frame=13146 fps=148 q=32.0 size=   18858kB time=00:09:08.45 bitrate= 281.7kbits/s dup=1 drop=0 speed=6.18x    frame=13217 fps=148 q=32.0 size=   18956kB time=00:09:11.40 bitrate= 281.6kbits/s dup=1 drop=0 speed=6.18x    frame=13281 fps=148 q=32.0 size=   19042kB time=00:09:14.09 bitrate= 281.5kbits/s dup=1 drop=0 speed=6.17x    frame=13338 fps=148 q=32.0 size=   19130kB time=00:09:16.48 bitrate= 281.6kbits/s dup=1 drop=0 speed=6.17x    frame=13396 fps=148 q=32.0 size=   19222kB time=00:09:18.87 bitrate= 281.8kbits/s dup=1 drop=0 speed=6.16x    frame=13483 fps=148 q=32.0 size=   19357kB time=00:09:22.49 bitrate= 281.9kbits/s dup=1 drop=0 speed=6.16x    frame=13612 fps=148 q=32.0 size=   19438kB time=00:09:27.87 bitrate= 280.4kbits/s dup=1 drop=0 speed=6.19x    frame=13719 fps=149 q=32.0 size=   19526kB time=00:09:32.39 bitrate= 279.5kbits/s dup=1 drop=0 speed= 6.2x    frame=13793 fps=149 q=32.0 size=   19597kB time=00:09:35.46 bitrate= 279.0kbits/s dup=1 drop=0 speed= 6.2x    frame=13870 fps=149 q=32.0 size=   19678kB time=00:09:38.66 bitrate= 278.6kbits/s dup=1 drop=0 speed=6.21x    frame=13960 fps=149 q=32.0 size=   19821kB time=00:09:42.42 bitrate= 278.8kbits/s dup=1 drop=0 speed=6.21x    frame=14061 fps=149 q=32.0 size=   19933kB time=00:09:46.64 bitrate= 278.4kbits/s dup=1 drop=0 speed=6.22x    frame=14142 fps=149 q=32.0 size=   20044kB time=00:09:49.97 bitrate= 278.3kbits/s dup=1 drop=0 speed=6.22x    frame=14230 fps=149 q=32.0 size=   20168kB time=00:09:53.64 bitrate= 278.3kbits/s dup=1 drop=0 speed=6.23x    frame=14346 fps=150 q=32.0 size=   20233kB time=00:09:58.50 bitrate= 276.9kbits/s dup=1 drop=0 speed=6.25x    frame=14413 fps=150 q=32.0 size=   20376kB time=00:10:01.28 bitrate= 277.6kbits/s dup=1 drop=0 speed=6.24x    frame=14509 fps=150 q=32.0 size=   20461kB time=00:10:05.29 bitrate= 276.9kbits/s dup=1 drop=0 speed=6.25x    frame=14579 fps=150 q=32.0 size=   20563kB time=00:10:08.23 bitrate= 276.9kbits/s dup=1 drop=0 speed=6.25x    frame=14629 fps=150 q=32.0 size=   20664kB time=00:10:10.28 bitrate= 277.4kbits/s dup=1 drop=0 speed=6.24x    frame=14665 fps=149 q=32.0 size=   20771kB time=00:10:11.81 bitrate= 278.1kbits/s dup=1 drop=0 speed=6.22x    frame=14691 fps=149 q=32.0 size=   20874kB time=00:10:12.88 bitrate= 279.0kbits/s dup=1 drop=0 speed= 6.2x    frame=14737 fps=148 q=32.0 size=   20992kB time=00:10:14.80 bitrate= 279.7kbits/s dup=1 drop=0 speed=6.19x    frame=14789 fps=148 q=32.0 size=   21050kB time=00:10:16.98 bitrate= 279.5kbits/s dup=1 drop=0 speed=6.18x    frame=14852 fps=148 q=32.0 size=   21144kB time=00:10:19.62 bitrate= 279.5kbits/s dup=1 drop=0 speed=6.17x    frame=14910 fps=148 q=32.0 size=   21215kB time=00:10:22.01 bitrate= 279.4kbits/s dup=1 drop=0 speed=6.17x    frame=14942 fps=147 q=32.0 size=   21324kB time=00:10:23.38 bitrate= 280.2kbits/s dup=1 drop=0 speed=6.15x    frame=14969 fps=147 q=32.0 size=   21419kB time=00:10:24.49 bitrate= 281.0kbits/s dup=1 drop=0 speed=6.13x    frame=15009 fps=147 q=32.0 size=   21544kB time=00:10:26.15 bitrate= 281.9kbits/s dup=1 drop=0 speed=6.12x    frame=15074 fps=147 q=32.0 size=   21652kB time=00:10:28.88 bitrate= 282.0kbits/s dup=1 drop=0 speed=6.11x    frame=15119 fps=146 q=32.0 size=   21740kB time=00:10:30.76 bitrate= 282.3kbits/s dup=1 drop=0 speed= 6.1x    frame=15198 fps=146 q=32.0 size=   21858kB time=00:10:34.04 bitrate= 282.4kbits/s dup=1 drop=0 speed= 6.1x    frame=15264 fps=146 q=32.0 size=   21962kB time=00:10:36.77 bitrate= 282.5kbits/s dup=1 drop=0 speed= 6.1x    frame=15363 fps=146 q=32.0 size=   22044kB time=00:10:40.91 bitrate= 281.8kbits/s dup=1 drop=0 speed=6.11x    frame=15429 fps=146 q=32.0 size=   22144kB time=00:10:43.69 bitrate= 281.8kbits/s dup=1 drop=0 speed= 6.1x    frame=15488 fps=146 q=32.0 size=   22256kB time=00:10:46.12 bitrate= 282.2kbits/s dup=1 drop=0 speed= 6.1x    frame=15575 fps=146 q=32.0 size=   22355kB time=00:10:49.79 bitrate= 281.8kbits/s dup=1 drop=0 speed= 6.1x    frame=15668 fps=146 q=32.0 size=   22451kB time=00:10:53.63 bitrate= 281.4kbits/s dup=1 drop=0 speed=6.11x    frame=15775 fps=147 q=32.0 size=   22557kB time=00:10:58.11 bitrate= 280.8kbits/s dup=1 drop=0 speed=6.12x    frame=15842 fps=147 q=32.0 size=   22665kB time=00:11:00.92 bitrate= 280.9kbits/s dup=1 drop=0 speed=6.12x    frame=15948 fps=147 q=32.0 size=   22780kB time=00:11:05.32 bitrate= 280.5kbits/s dup=1 drop=0 speed=6.13x    frame=16041 fps=147 q=32.0 size=   22860kB time=00:11:09.20 bitrate= 279.8kbits/s dup=1 drop=0 speed=6.13x    frame=16096 fps=147 q=32.0 size=   22957kB time=00:11:11.51 bitrate= 280.1kbits/s dup=1 drop=0 speed=6.13x    frame=16165 fps=147 q=32.0 size=   23093kB time=00:11:14.36 bitrate= 280.5kbits/s dup=1 drop=0 speed=6.13x    frame=16266 fps=147 q=32.0 size=   23168kB time=00:11:18.59 bitrate= 279.7kbits/s dup=1 drop=0 speed=6.14x    frame=16356 fps=147 q=32.0 size=   23269kB time=00:11:22.34 bitrate= 279.4kbits/s dup=1 drop=0 speed=6.14x    frame=16426 fps=147 q=32.0 size=   23369kB time=00:11:25.29 bitrate= 279.4kbits/s dup=1 drop=0 speed=6.14x    frame=16480 fps=147 q=32.0 size=   23460kB time=00:11:27.51 bitrate= 279.5kbits/s dup=1 drop=0 speed=6.13x    frame=16566 fps=147 q=32.0 size=   23591kB time=00:11:31.09 bitrate= 279.6kbits/s dup=1 drop=0 speed=6.14x    frame=16651 fps=147 q=32.0 size=   23683kB time=00:11:34.63 bitrate= 279.3kbits/s dup=1 drop=0 speed=6.14x    frame=16735 fps=147 q=32.0 size=   23764kB time=00:11:38.17 bitrate= 278.8kbits/s dup=1 drop=0 speed=6.14x    frame=16842 fps=148 q=32.0 size=   23854kB time=00:11:42.61 bitrate= 278.1kbits/s dup=1 drop=0 speed=6.16x    frame=16923 fps=148 q=32.0 size=   23993kB time=00:11:46.02 bitrate= 278.4kbits/s dup=1 drop=0 speed=6.16x    frame=17037 fps=148 q=32.0 size=   24077kB time=00:11:50.72 bitrate= 277.5kbits/s dup=1 drop=0 speed=6.17x    frame=17138 fps=148 q=32.0 size=   24220kB time=00:11:54.94 bitrate= 277.5kbits/s dup=1 drop=0 speed=6.18x    frame=17255 fps=149 q=32.0 size=   24306kB time=00:11:59.80 bitrate= 276.6kbits/s dup=1 drop=0 speed= 6.2x    frame=17361 fps=149 q=32.0 size=   24445kB time=00:12:04.20 bitrate= 276.5kbits/s dup=1 drop=0 speed=6.21x    frame=17435 fps=149 q=32.0 size=   24547kB time=00:12:07.36 bitrate= 276.5kbits/s dup=1 drop=0 speed=6.21x    frame=17495 fps=149 q=32.0 size=   24648kB time=00:12:09.83 bitrate= 276.7kbits/s dup=1 drop=0 speed= 6.2x    frame=17560 fps=149 q=32.0 size=   24757kB time=00:12:12.56 bitrate= 276.8kbits/s dup=1 drop=0 speed= 6.2x    frame=17633 fps=149 q=32.0 size=   24831kB time=00:12:15.59 bitrate= 276.5kbits/s dup=1 drop=0 speed= 6.2x    frame=17698 fps=149 q=32.0 size=   24927kB time=00:12:18.32 bitrate= 276.6kbits/s dup=1 drop=0 speed= 6.2x    frame=17758 fps=148 q=32.0 size=   25054kB time=00:12:20.80 bitrate= 277.1kbits/s dup=1 drop=0 speed=6.19x    frame=17830 fps=148 q=32.0 size=   25178kB time=00:12:23.78 bitrate= 277.3kbits/s dup=1 drop=0 speed=6.19x    frame=17919 fps=148 q=32.0 size=   25262kB time=00:12:27.54 bitrate= 276.8kbits/s dup=1 drop=0 speed=6.19x    frame=17996 fps=148 q=32.0 size=   25357kB time=00:12:30.74 bitrate= 276.7kbits/s dup=1 drop=0 speed=6.19x    frame=18076 fps=148 q=32.0 size=   25469kB time=00:12:34.07 bitrate= 276.7kbits/s dup=1 drop=0 speed=6.19x    frame=18166 fps=149 q=32.0 size=   25566kB time=00:12:37.82 bitrate= 276.4kbits/s dup=1 drop=0 speed= 6.2x    frame=18272 fps=149 q=32.0 size=   25698kB time=00:12:42.26 bitrate= 276.2kbits/s dup=1 drop=0 speed=6.21x    frame=18357 fps=149 q=32.0 size=   25806kB time=00:12:45.80 bitrate= 276.1kbits/s dup=1 drop=0 speed=6.21x    frame=18441 fps=149 q=32.0 size=   25908kB time=00:12:49.30 bitrate= 275.9kbits/s dup=1 drop=0 speed=6.22x    frame=18540 fps=149 q=32.0 size=   26050kB time=00:12:53.44 bitrate= 275.9kbits/s dup=1 drop=0 speed=6.22x    frame=18636 fps=149 q=32.0 size=   26168kB time=00:12:57.45 bitrate= 275.7kbits/s dup=1 drop=0 speed=6.23x    frame=18711 fps=149 q=32.0 size=   26283kB time=00:13:00.56 bitrate= 275.8kbits/s dup=1 drop=0 speed=6.23x    frame=18766 fps=149 q=32.0 size=   26401kB time=00:13:02.87 bitrate= 276.3kbits/s dup=1 drop=0 speed=6.22x    frame=18824 fps=149 q=32.0 size=   26533kB time=00:13:05.30 bitrate= 276.8kbits/s dup=1 drop=0 speed=6.22x    frame=18925 fps=149 q=32.0 size=   26643kB time=00:13:09.48 bitrate= 276.5kbits/s dup=1 drop=0 speed=6.23x    frame=19021 fps=149 q=32.0 size=   26716kB time=00:13:13.49 bitrate= 275.8kbits/s dup=1 drop=0 speed=6.23x    frame=19059 fps=149 q=32.0 size=   26802kB time=00:13:15.11 bitrate= 276.1kbits/s dup=1 drop=0 speed=6.22x    frame=19106 fps=149 q=32.0 size=   26916kB time=00:13:17.03 bitrate= 276.6kbits/s dup=1 drop=0 speed=6.21x    frame=19165 fps=149 q=32.0 size=   27041kB time=00:13:19.46 bitrate= 277.1kbits/s dup=1 drop=0 speed=6.21x    frame=19249 fps=149 q=32.0 size=   27165kB time=00:13:23.00 bitrate= 277.1kbits/s dup=1 drop=0 speed=6.21x    frame=19343 fps=149 q=32.0 size=   27272kB time=00:13:26.93 bitrate= 276.9kbits/s dup=1 drop=0 speed=6.22x    frame=19429 fps=149 q=32.0 size=   27359kB time=00:13:30.51 bitrate= 276.5kbits/s dup=1 drop=0 speed=6.22x    frame=19529 fps=149 q=32.0 size=   27447kB time=00:13:34.69 bitrate= 276.0kbits/s dup=1 drop=0 speed=6.23x    frame=19602 fps=149 q=32.0 size=   27583kB time=00:13:37.72 bitrate= 276.3kbits/s dup=1 drop=0 speed=6.23x    frame=19681 fps=149 q=32.0 size=   27700kB time=00:13:41.01 bitrate= 276.4kbits/s dup=1 drop=0 speed=6.23x    frame=19750 fps=149 q=32.0 size=   27786kB time=00:13:43.91 bitrate= 276.3kbits/s dup=1 drop=0 speed=6.22x    frame=19829 fps=149 q=32.0 size=   27870kB time=00:13:47.20 bitrate= 276.0kbits/s dup=1 drop=0 speed=6.23x    frame=19929 fps=149 q=32.0 size=   27984kB time=00:13:51.33 bitrate= 275.8kbits/s dup=1 drop=0 speed=6.23x    frame=20040 fps=150 q=32.0 size=   28089kB time=00:13:55.99 bitrate= 275.2kbits/s dup=1 drop=0 speed=6.24x    frame=20128 fps=150 q=32.0 size=   28151kB time=00:13:59.65 bitrate= 274.7kbits/s dup=1 drop=0 speed=6.25x    frame=20190 fps=150 q=32.0 size=   28251kB time=00:14:02.26 bitrate= 274.8kbits/s dup=1 drop=0 speed=6.24x    frame=20280 fps=150 q=32.0 size=   28381kB time=00:14:06.01 bitrate= 274.8kbits/s dup=1 drop=0 speed=6.25x    frame=20348 fps=150 q=32.0 size=   28474kB time=00:14:08.83 bitrate= 274.8kbits/s dup=1 drop=0 speed=6.25x    frame=20420 fps=150 q=32.0 size=   28567kB time=00:14:11.81 bitrate= 274.7kbits/s dup=1 drop=0 speed=6.24x    frame=20489 fps=150 q=32.0 size=   28659kB time=00:14:14.72 bitrate= 274.7kbits/s dup=1 drop=0 speed=6.24x    frame=20561 fps=150 q=32.0 size=   28788kB time=00:14:17.75 bitrate= 274.9kbits/s dup=1 drop=0 speed=6.24x    frame=20628 fps=150 q=32.0 size=   28904kB time=00:14:20.52 bitrate= 275.2kbits/s dup=1 drop=0 speed=6.24x    frame=20698 fps=149 q=32.0 size=   29003kB time=00:14:23.46 bitrate= 275.2kbits/s dup=1 drop=0 speed=6.24x    frame=20787 fps=150 q=32.0 size=   29110kB time=00:14:27.13 bitrate= 275.0kbits/s dup=1 drop=0 speed=6.24x    frame=20862 fps=150 q=32.0 size=   29205kB time=00:14:30.29 bitrate= 274.9kbits/s dup=1 drop=0 speed=6.24x    frame=20970 fps=150 q=32.0 size=   29329kB time=00:14:34.77 bitrate= 274.7kbits/s dup=1 drop=0 speed=6.25x    frame=21061 fps=150 q=32.0 size=   29423kB time=00:14:38.57 bitrate= 274.3kbits/s dup=1 drop=0 speed=6.25x    frame=21090 fps=150 q=32.0 size=   29447kB time=00:14:39.80 bitrate= 274.2kbits/s dup=1 drop=0 speed=6.24x    frame=21211 fps=150 q=32.0 size=   29571kB time=00:14:44.84 bitrate= 273.8kbits/s dup=1 drop=0 speed=6.25x    frame=21310 fps=150 q=32.0 size=   29683kB time=00:14:48.93 bitrate= 273.5kbits/s dup=1 drop=0 speed=6.26x    frame=21404 fps=150 q=32.0 size=   29777kB time=00:14:52.90 bitrate= 273.2kbits/s dup=1 drop=0 speed=6.26x    frame=21490 fps=150 q=32.0 size=   29850kB time=00:14:56.49 bitrate= 272.8kbits/s dup=1 drop=0 speed=6.27x    frame=21584 fps=150 q=32.0 size=   29913kB time=00:15:00.37 bitrate= 272.2kbits/s dup=1 drop=0 speed=6.27x    frame=21664 fps=150 q=32.0 size=   30009kB time=00:15:03.70 bitrate= 272.0kbits/s dup=1 drop=0 speed=6.27x    frame=21745 fps=150 q=32.0 size=   30101kB time=00:15:07.11 bitrate= 271.8kbits/s dup=1 drop=0 speed=6.27x    frame=21817 fps=150 q=32.0 size=   30217kB time=00:15:10.10 bitrate= 272.0kbits/s dup=1 drop=0 speed=6.27x    frame=21876 fps=150 q=32.0 size=   30284kB time=00:15:12.61 bitrate= 271.8kbits/s dup=1 drop=0 speed=6.27x    frame=21934 fps=150 q=32.0 size=   30394kB time=00:15:15.00 bitrate= 272.1kbits/s dup=1 drop=0 speed=6.26x    frame=22018 fps=150 q=32.0 size=   30517kB time=00:15:18.50 bitrate= 272.2kbits/s dup=1 drop=0 speed=6.27x    frame=22151 fps=151 q=32.0 size=   30602kB time=00:15:24.05 bitrate= 271.3kbits/s dup=1 drop=0 speed=6.28x    frame=22251 fps=151 q=32.0 size=   30701kB time=00:15:28.19 bitrate= 271.0kbits/s dup=1 drop=0 speed=6.29x    frame=22311 fps=151 q=32.0 size=   30801kB time=00:15:30.71 bitrate= 271.1kbits/s dup=1 drop=0 speed=6.28x    frame=22355 fps=150 q=32.0 size=   30899kB time=00:15:32.54 bitrate= 271.4kbits/s dup=1 drop=0 speed=6.27x    frame=22404 fps=150 q=32.0 size=   31002kB time=00:15:34.59 bitrate= 271.7kbits/s dup=1 drop=0 speed=6.27x    frame=22466 fps=150 q=32.0 size=   31107kB time=00:15:37.19 bitrate= 271.9kbits/s dup=1 drop=0 speed=6.26x    frame=22523 fps=150 q=32.0 size=   31196kB time=00:15:39.54 bitrate= 272.0kbits/s dup=1 drop=0 speed=6.26x    frame=22601 fps=150 q=32.0 size=   31353kB time=00:15:42.82 bitrate= 272.4kbits/s dup=1 drop=0 speed=6.26x    frame=22658 fps=150 q=32.0 size=   31486kB time=00:15:45.17 bitrate= 272.9kbits/s dup=1 drop=0 speed=6.25x    frame=22751 fps=150 q=32.0 size=   31623kB time=00:15:49.05 bitrate= 273.0kbits/s dup=1 drop=0 speed=6.26x    frame=22869 fps=150 q=32.0 size=   31715kB time=00:15:53.96 bitrate= 272.4kbits/s dup=1 drop=0 speed=6.27x    frame=22958 fps=150 q=32.0 size=   31851kB time=00:15:57.67 bitrate= 272.5kbits/s dup=1 drop=0 speed=6.27x    frame=23065 fps=151 q=32.0 size=   31972kB time=00:16:02.15 bitrate= 272.2kbits/s dup=1 drop=0 speed=6.28x    frame=23171 fps=151 q=32.0 size=   32090kB time=00:16:06.59 bitrate= 272.0kbits/s dup=1 drop=0 speed=6.29x    frame=23276 fps=151 q=32.0 size=   32197kB time=00:16:10.98 bitrate= 271.6kbits/s dup=1 drop=0 speed= 6.3x    frame=23378 fps=151 q=32.0 size=   32325kB time=00:16:15.21 bitrate= 271.5kbits/s dup=1 drop=0 speed= 6.3x    frame=23449 fps=151 q=32.0 size=   32440kB time=00:16:18.15 bitrate= 271.7kbits/s dup=1 drop=0 speed= 6.3x    frame=23548 fps=151 q=32.0 size=   32517kB time=00:16:22.29 bitrate= 271.2kbits/s dup=1 drop=0 speed=6.31x    frame=23613 fps=151 q=32.0 size=   32642kB time=00:16:25.02 bitrate= 271.5kbits/s dup=1 drop=0 speed= 6.3x    frame=23715 fps=151 q=32.0 size=   32749kB time=00:16:29.29 bitrate= 271.2kbits/s dup=1 drop=0 speed=6.31x    frame=23798 fps=151 q=32.0 size=   32844kB time=00:16:32.74 bitrate= 271.0kbits/s dup=1 drop=0 speed=6.31x    frame=23859 fps=151 q=32.0 size=   32925kB time=00:16:35.26 bitrate= 271.0kbits/s dup=1 drop=0 speed=6.31x    frame=23926 fps=151 q=32.0 size=   33026kB time=00:16:38.08 bitrate= 271.1kbits/s dup=1 drop=0 speed=6.31x    frame=24013 fps=151 q=32.0 size=   33146kB time=00:16:41.70 bitrate= 271.1kbits/s dup=1 drop=0 speed=6.31x    frame=24100 fps=151 q=32.0 size=   33258kB time=00:16:45.33 bitrate= 271.0kbits/s dup=1 drop=0 speed=6.31x    frame=24152 fps=151 q=32.0 size=   33368kB time=00:16:47.51 bitrate= 271.3kbits/s dup=1 drop=0 speed=6.31x    frame=24191 fps=151 q=32.0 size=   33488kB time=00:16:49.13 bitrate= 271.9kbits/s dup=1 drop=0 speed= 6.3x    frame=24240 fps=151 q=32.0 size=   33589kB time=00:16:51.17 bitrate= 272.1kbits/s dup=1 drop=0 speed=6.29x    frame=24302 fps=151 q=32.0 size=   33705kB time=00:16:53.73 bitrate= 272.4kbits/s dup=1 drop=0 speed=6.28x    frame=24362 fps=151 q=32.0 size=   33802kB time=00:16:56.25 bitrate= 272.5kbits/s dup=1 drop=0 speed=6.28x    frame=24462 fps=151 q=32.0 size=   33881kB time=00:17:00.43 bitrate= 272.0kbits/s dup=1 drop=0 speed=6.29x    frame=24582 fps=151 q=32.0 size=   33975kB time=00:17:05.43 bitrate= 271.4kbits/s dup=1 drop=0 speed= 6.3x    frame=24667 fps=151 q=32.0 size=   34067kB time=00:17:08.97 bitrate= 271.2kbits/s dup=1 drop=0 speed= 6.3x    frame=24751 fps=151 q=32.0 size=   34150kB time=00:17:12.47 bitrate= 271.0kbits/s dup=1 drop=0 speed= 6.3x    frame=24827 fps=151 q=32.0 size=   34267kB time=00:17:15.62 bitrate= 271.1kbits/s dup=1 drop=0 speed= 6.3x    frame=24908 fps=151 q=32.0 size=   34385kB time=00:17:19.04 bitrate= 271.1kbits/s dup=1 drop=0 speed= 6.3x    frame=24970 fps=151 q=32.0 size=   34483kB time=00:17:21.64 bitrate= 271.2kbits/s dup=1 drop=0 speed= 6.3x    frame=25070 fps=151 q=32.0 size=   34594kB time=00:17:25.78 bitrate= 271.0kbits/s dup=1 drop=0 speed= 6.3x    frame=25178 fps=151 q=32.0 size=   34700kB time=00:17:30.30 bitrate= 270.6kbits/s dup=1 drop=0 speed=6.31x    frame=25248 fps=151 q=32.0 size=   34818kB time=00:17:33.20 bitrate= 270.8kbits/s dup=1 drop=0 speed=6.31x    frame=25333 fps=151 q=32.0 size=   34936kB time=00:17:36.74 bitrate= 270.8kbits/s dup=1 drop=0 speed=6.31x    frame=25396 fps=151 q=32.0 size=   35047kB time=00:17:39.39 bitrate= 271.0kbits/s dup=1 drop=0 speed=6.31x    frame=25463 fps=151 q=32.0 size=   35157kB time=00:17:42.16 bitrate= 271.1kbits/s dup=1 drop=0 speed= 6.3x    frame=25528 fps=151 q=32.0 size=   35298kB time=00:17:44.89 bitrate= 271.5kbits/s dup=1 drop=0 speed= 6.3x    frame=25607 fps=151 q=32.0 size=   35414kB time=00:17:48.18 bitrate= 271.6kbits/s dup=1 drop=0 speed= 6.3x    frame=25659 fps=151 q=32.0 size=   35516kB time=00:17:50.35 bitrate= 271.8kbits/s dup=1 drop=0 speed= 6.3x    frame=25699 fps=151 q=32.0 size=   35660kB time=00:17:52.02 bitrate= 272.5kbits/s dup=1 drop=0 speed=6.29x    frame=25751 fps=151 q=32.0 size=   35835kB time=00:17:54.19 bitrate= 273.3kbits/s dup=1 drop=0 speed=6.28x    frame=25815 fps=150 q=32.0 size=   35965kB time=00:17:56.84 bitrate= 273.6kbits/s dup=1 drop=0 speed=6.28x    frame=25887 fps=150 q=32.0 size=   36083kB time=00:17:59.83 bitrate= 273.7kbits/s dup=1 drop=0 speed=6.27x    frame=25964 fps=150 q=32.0 size=   36192kB time=00:18:03.07 bitrate= 273.7kbits/s dup=1 drop=0 speed=6.28x    frame=26036 fps=150 q=32.0 size=   36298kB time=00:18:06.05 bitrate= 273.8kbits/s dup=1 drop=0 speed=6.27x    frame=26090 fps=150 q=32.0 size=   36387kB time=00:18:08.32 bitrate= 273.9kbits/s dup=1 drop=0 speed=6.27x    frame=26159 fps=150 q=32.0 size=   36480kB time=00:18:11.22 bitrate= 273.9kbits/s dup=1 drop=0 speed=6.27x    frame=26230 fps=150 q=32.0 size=   36599kB time=00:18:14.16 bitrate= 274.0kbits/s dup=1 drop=0 speed=6.27x    frame=26302 fps=150 q=32.0 size=   36734kB time=00:18:17.19 bitrate= 274.3kbits/s dup=1 drop=0 speed=6.27x    frame=26370 fps=150 q=32.0 size=   36863kB time=00:18:20.01 bitrate= 274.5kbits/s dup=1 drop=0 speed=6.26x    frame=26429 fps=150 q=32.0 size=   37006kB time=00:18:22.44 bitrate= 275.0kbits/s dup=1 drop=0 speed=6.26x    frame=26468 fps=150 q=32.0 size=   37114kB time=00:18:24.10 bitrate= 275.4kbits/s dup=1 drop=0 speed=6.25x    frame=26510 fps=150 q=32.0 size=   37272kB time=00:18:25.85 bitrate= 276.1kbits/s dup=1 drop=0 speed=6.24x    frame=26575 fps=150 q=32.0 size=   37431kB time=00:18:28.58 bitrate= 276.6kbits/s dup=1 drop=0 speed=6.24x    frame=26630 fps=149 q=32.0 size=   37530kB time=00:18:30.84 bitrate= 276.8kbits/s dup=1 drop=0 speed=6.23x    frame=26702 fps=149 q=32.0 size=   37630kB time=00:18:33.87 bitrate= 276.8kbits/s dup=1 drop=0 speed=6.23x    frame=26773 fps=149 q=32.0 size=   37750kB time=00:18:36.82 bitrate= 276.9kbits/s dup=1 drop=0 speed=6.23x    frame=26821 fps=149 q=32.0 size=   37888kB time=00:18:38.82 bitrate= 277.4kbits/s dup=1 drop=0 speed=6.22x    frame=26865 fps=149 q=32.0 size=   38026kB time=00:18:40.66 bitrate= 278.0kbits/s dup=1 drop=0 speed=6.22x    frame=26927 fps=149 q=32.0 size=   38146kB time=00:18:43.26 bitrate= 278.2kbits/s dup=1 drop=0 speed=6.21x    frame=26961 fps=149 q=32.0 size=   38255kB time=00:18:44.67 bitrate= 278.6kbits/s dup=1 drop=0 speed= 6.2x    frame=27001 fps=149 q=32.0 size=   38369kB time=00:18:46.33 bitrate= 279.1kbits/s dup=1 drop=0 speed=6.19x    frame=27042 fps=148 q=32.0 size=   38495kB time=00:18:48.04 bitrate= 279.6kbits/s dup=1 drop=0 speed=6.19x    frame=27090 fps=148 q=32.0 size=   38638kB time=00:18:50.04 bitrate= 280.1kbits/s dup=1 drop=0 speed=6.18x    frame=27137 fps=148 q=32.0 size=   38779kB time=00:18:52.01 bitrate= 280.6kbits/s dup=1 drop=0 speed=6.17x    frame=27194 fps=148 q=32.0 size=   38919kB time=00:18:54.40 bitrate= 281.0kbits/s dup=1 drop=0 speed=6.17x    frame=27269 fps=148 q=32.0 size=   39038kB time=00:18:57.51 bitrate= 281.1kbits/s dup=1 drop=0 speed=6.17x    frame=27335 fps=148 q=32.0 size=   39150kB time=00:19:00.24 bitrate= 281.3kbits/s dup=1 drop=0 speed=6.16x    frame=27391 fps=148 q=32.0 size=   39252kB time=00:19:02.59 bitrate= 281.4kbits/s dup=1 drop=0 speed=6.16x    frame=27451 fps=148 q=32.0 size=   39388kB time=00:19:05.06 bitrate= 281.8kbits/s dup=1 drop=0 speed=6.16x    frame=27497 fps=147 q=32.0 size=   39482kB time=00:19:06.98 bitrate= 282.0kbits/s dup=1 drop=0 speed=6.15x    frame=27546 fps=147 q=32.0 size=   39586kB time=00:19:09.03 bitrate= 282.2kbits/s dup=1 drop=0 speed=6.14x    frame=27594 fps=147 q=32.0 size=   39688kB time=00:19:11.08 bitrate= 282.5kbits/s dup=1 drop=0 speed=6.14x    frame=27672 fps=147 q=32.0 size=   39805kB time=00:19:14.28 bitrate= 282.5kbits/s dup=1 drop=0 speed=6.14x    frame=27757 fps=147 q=32.0 size=   39938kB time=00:19:17.86 bitrate= 282.6kbits/s dup=1 drop=0 speed=6.14x    frame=27833 fps=147 q=32.0 size=   40040kB time=00:19:21.02 bitrate= 282.5kbits/s dup=1 drop=0 speed=6.14x    frame=27893 fps=147 q=32.0 size=   40194kB time=00:19:23.49 bitrate= 283.0kbits/s dup=1 drop=0 speed=6.13x    frame=27976 fps=147 q=32.0 size=   40278kB time=00:19:26.99 bitrate= 282.7kbits/s dup=1 drop=0 speed=6.14x    frame=28065 fps=147 q=32.0 size=   40409kB time=00:19:30.71 bitrate= 282.8kbits/s dup=1 drop=0 speed=6.14x    frame=28139 fps=147 q=32.0 size=   40534kB time=00:19:33.78 bitrate= 282.9kbits/s dup=1 drop=0 speed=6.14x    frame=28212 fps=147 q=32.0 size=   40627kB time=00:19:36.85 bitrate= 282.8kbits/s dup=1 drop=0 speed=6.14x    frame=28284 fps=147 q=32.0 size=   40706kB time=00:19:39.84 bitrate= 282.6kbits/s dup=1 drop=0 speed=6.14x    frame=28348 fps=147 q=32.0 size=   40793kB time=00:19:42.48 bitrate= 282.6kbits/s dup=1 drop=0 speed=6.14x    frame=28404 fps=147 q=32.0 size=   40940kB time=00:19:44.83 bitrate= 283.1kbits/s dup=1 drop=0 speed=6.13x    frame=28468 fps=147 q=32.0 size=   41046kB time=00:19:47.52 bitrate= 283.2kbits/s dup=1 drop=0 speed=6.13x    frame=28531 fps=147 q=32.0 size=   41130kB time=00:19:50.12 bitrate= 283.1kbits/s dup=1 drop=0 speed=6.13x    frame=28586 fps=147 q=32.0 size=   41233kB time=00:19:52.42 bitrate= 283.3kbits/s dup=1 drop=0 speed=6.12x    frame=28639 fps=147 q=32.0 size=   41327kB time=00:19:54.64 bitrate= 283.4kbits/s dup=1 drop=0 speed=6.12x    frame=28690 fps=146 q=32.0 size=   41454kB time=00:19:56.77 bitrate= 283.8kbits/s dup=1 drop=0 speed=6.11x    frame=28728 fps=146 q=32.0 size=   41565kB time=00:19:58.35 bitrate= 284.1kbits/s dup=1 drop=0 speed= 6.1x    frame=28767 fps=146 q=32.0 size=   41670kB time=00:19:59.97 bitrate= 284.5kbits/s dup=1 drop=0 speed=6.09x    frame=28805 fps=146 q=32.0 size=   41778kB time=00:20:01.55 bitrate= 284.8kbits/s dup=1 drop=0 speed=6.09x    frame=28841 fps=146 q=32.0 size=   41873kB time=00:20:03.05 bitrate= 285.1kbits/s dup=1 drop=0 speed=6.08x    frame=28885 fps=146 q=32.0 size=   41986kB time=00:20:04.88 bitrate= 285.5kbits/s dup=1 drop=0 speed=6.07x    frame=28936 fps=145 q=32.0 size=   42145kB time=00:20:07.01 bitrate= 286.0kbits/s dup=1 drop=0 speed=6.07x    frame=28980 fps=145 q=29.0 size=   42253kB time=00:20:08.85 bitrate= 286.3kbits/s dup=1 drop=0 speed=6.06x    frame=29011 fps=145 q=32.0 size=   42393kB time=00:20:10.13 bitrate= 287.0kbits/s dup=1 drop=0 speed=6.05x    frame=29041 fps=145 q=32.0 size=   42514kB time=00:20:11.41 bitrate= 287.5kbits/s dup=1 drop=0 speed=6.04x    frame=29082 fps=145 q=32.0 size=   42647kB time=00:20:13.12 bitrate= 288.0kbits/s dup=1 drop=0 speed=6.04x    frame=29145 fps=145 q=32.0 size=   42774kB time=00:20:15.72 bitrate= 288.2kbits/s dup=1 drop=0 speed=6.03x    frame=29208 fps=145 q=32.0 size=   42896kB time=00:20:18.36 bitrate= 288.4kbits/s dup=1 drop=0 speed=6.03x    frame=29250 fps=144 q=32.0 size=   43021kB time=00:20:20.11 bitrate= 288.8kbits/s dup=1 drop=0 speed=6.02x    frame=29291 fps=144 q=32.0 size=   43171kB time=00:20:21.82 bitrate= 289.5kbits/s dup=1 drop=0 speed=6.02x    frame=29338 fps=144 q=32.0 size=   43269kB time=00:20:23.78 bitrate= 289.6kbits/s dup=1 drop=0 speed=6.01x    frame=29391 fps=144 q=32.0 size=   43411kB time=00:20:26.00 bitrate= 290.1kbits/s dup=1 drop=0 speed=6.01x    frame=29454 fps=144 q=32.0 size=   43537kB time=00:20:28.65 bitrate= 290.3kbits/s dup=1 drop=0 speed=6.01x    frame=29525 fps=144 q=32.0 size=   43671kB time=00:20:31.59 bitrate= 290.5kbits/s dup=1 drop=0 speed=   6x    frame=29559 fps=144 q=32.0 size=   43796kB time=00:20:33.00 bitrate= 291.0kbits/s dup=1 drop=0 speed=   6x    frame=29596 fps=144 q=32.0 size=   43917kB time=00:20:34.53 bitrate= 291.4kbits/s dup=1 drop=0 speed=5.99x    frame=29660 fps=144 q=32.0 size=   44064kB time=00:20:37.22 bitrate= 291.8kbits/s dup=1 drop=0 speed=5.99x    frame=29726 fps=143 q=32.0 size=   44209kB time=00:20:40.00 bitrate= 292.1kbits/s dup=1 drop=0 speed=5.98x    frame=29793 fps=143 q=32.0 size=   44308kB time=00:20:42.77 bitrate= 292.1kbits/s dup=1 drop=0 speed=5.98x    frame=29842 fps=143 q=32.0 size=   44489kB time=00:20:44.82 bitrate= 292.8kbits/s dup=1 drop=0 speed=5.98x    frame=29900 fps=143 q=32.0 size=   44636kB time=00:20:47.21 bitrate= 293.2kbits/s dup=1 drop=0 speed=5.98x    frame=29966 fps=143 q=32.0 size=   44784kB time=00:20:49.98 bitrate= 293.5kbits/s dup=1 drop=0 speed=5.97x    frame=30006 fps=143 q=32.0 size=   44938kB time=00:20:51.64 bitrate= 294.1kbits/s dup=1 drop=0 speed=5.97x    frame=30054 fps=143 q=32.0 size=   45107kB time=00:20:53.65 bitrate= 294.7kbits/s dup=1 drop=0 speed=5.96x    frame=30107 fps=143 q=32.0 size=   45226kB time=00:20:55.91 bitrate= 295.0kbits/s dup=1 drop=0 speed=5.96x    frame=30147 fps=143 q=32.0 size=   45335kB time=00:20:57.53 bitrate= 295.3kbits/s dup=1 drop=0 speed=5.95x    frame=30184 fps=142 q=32.0 size=   45453kB time=00:20:59.07 bitrate= 295.7kbits/s dup=1 drop=0 speed=5.94x    frame=30241 fps=142 q=32.0 size=   45600kB time=00:21:01.46 bitrate= 296.1kbits/s dup=1 drop=0 speed=5.94x    frame=30299 fps=142 q=32.0 size=   45742kB time=00:21:03.89 bitrate= 296.5kbits/s dup=1 drop=0 speed=5.94x    frame=30360 fps=142 q=32.0 size=   45862kB time=00:21:06.41 bitrate= 296.7kbits/s dup=1 drop=0 speed=5.93x    frame=30419 fps=142 q=32.0 size=   45938kB time=00:21:08.88 bitrate= 296.6kbits/s dup=1 drop=0 speed=5.93x    frame=30478 fps=142 q=32.0 size=   46044kB time=00:21:11.36 bitrate= 296.7kbits/s dup=1 drop=0 speed=5.93x    frame=30545 fps=142 q=32.0 size=   46170kB time=00:21:14.13 bitrate= 296.8kbits/s dup=1 drop=0 speed=5.93x    frame=30649 fps=142 q=32.0 size=   46274kB time=00:21:18.48 bitrate= 296.5kbits/s dup=1 drop=0 speed=5.93x    frame=30747 fps=142 q=32.0 size=   46393kB time=00:21:22.53 bitrate= 296.3kbits/s dup=1 drop=0 speed=5.94x    frame=30812 fps=142 q=32.0 size=   46478kB time=00:21:25.31 bitrate= 296.2kbits/s dup=1 drop=0 speed=5.94x    frame=30902 fps=142 q=32.0 size=   46603kB time=00:21:29.02 bitrate= 296.2kbits/s dup=1 drop=0 speed=5.94x    frame=30966 fps=142 q=32.0 size=   46675kB time=00:21:31.71 bitrate= 296.0kbits/s dup=1 drop=0 speed=5.94x    frame=31015 fps=142 q=32.0 size=   46889kB time=00:21:33.76 bitrate= 296.9kbits/s dup=1 drop=0 speed=5.93x    frame=31100 fps=142 q=32.0 size=   46995kB time=00:21:37.30 bitrate= 296.8kbits/s dup=1 drop=0 speed=5.94x    frame=31164 fps=142 q=32.0 size=   47075kB time=00:21:39.94 bitrate= 296.7kbits/s dup=1 drop=0 speed=5.93x    frame=31229 fps=142 q=32.0 size=   47207kB time=00:21:42.67 bitrate= 296.9kbits/s dup=1 drop=0 speed=5.93x    frame=31332 fps=142 q=32.0 size=   47330kB time=00:21:46.94 bitrate= 296.7kbits/s dup=1 drop=0 speed=5.94x    frame=31418 fps=142 q=32.0 size=   47431kB time=00:21:50.52 bitrate= 296.5kbits/s dup=1 drop=0 speed=5.94x    frame=31489 fps=142 q=32.0 size=   47544kB time=00:21:53.51 bitrate= 296.5kbits/s dup=1 drop=0 speed=5.94x    frame=31546 fps=142 q=32.0 size=   47649kB time=00:21:55.90 bitrate= 296.6kbits/s dup=1 drop=0 speed=5.94x    frame=31621 fps=142 q=32.0 size=   47738kB time=00:21:59.01 bitrate= 296.5kbits/s dup=1 drop=0 speed=5.94x    frame=31681 fps=142 q=32.0 size=   47859kB time=00:22:01.49 bitrate= 296.7kbits/s dup=1 drop=0 speed=5.94x    frame=31739 fps=142 q=32.0 size=   48031kB time=00:22:03.92 bitrate= 297.2kbits/s dup=1 drop=0 speed=5.93x    frame=31793 fps=142 q=32.0 size=   48159kB time=00:22:06.18 bitrate= 297.5kbits/s dup=1 drop=0 speed=5.93x    frame=31864 fps=142 q=32.0 size=   48282kB time=00:22:09.13 bitrate= 297.6kbits/s dup=1 drop=0 speed=5.93x    frame=31924 fps=142 q=32.0 size=   48431kB time=00:22:11.64 bitrate= 297.9kbits/s dup=1 drop=0 speed=5.93x    frame=32004 fps=142 q=32.0 size=   48559kB time=00:22:15.01 bitrate= 298.0kbits/s dup=1 drop=0 speed=5.93x    frame=32069 fps=142 q=32.0 size=   48664kB time=00:22:17.70 bitrate= 298.0kbits/s dup=1 drop=0 speed=5.93x    frame=32109 fps=142 q=32.0 size=   48755kB time=00:22:19.37 bitrate= 298.2kbits/s dup=1 drop=0 speed=5.92x    frame=32171 fps=142 q=32.0 size=   48907kB time=00:22:21.97 bitrate= 298.5kbits/s dup=1 drop=0 speed=5.92x    frame=32242 fps=142 q=32.0 size=   49021kB time=00:22:24.91 bitrate= 298.6kbits/s dup=1 drop=0 speed=5.92x    frame=32328 fps=142 q=32.0 size=   49098kB time=00:22:28.50 bitrate= 298.3kbits/s dup=1 drop=0 speed=5.92x    frame=32391 fps=142 q=32.0 size=   49264kB time=00:22:31.14 bitrate= 298.7kbits/s dup=1 drop=0 speed=5.92x    frame=32462 fps=142 q=32.0 size=   49363kB time=00:22:34.09 bitrate= 298.6kbits/s dup=1 drop=0 speed=5.92x    frame=32553 fps=142 q=32.0 size=   49450kB time=00:22:37.88 bitrate= 298.3kbits/s dup=1 drop=0 speed=5.92x    frame=32639 fps=142 q=32.0 size=   49578kB time=00:22:41.47 bitrate= 298.3kbits/s dup=1 drop=0 speed=5.92x    frame=32714 fps=142 q=32.0 size=   49683kB time=00:22:44.63 bitrate= 298.3kbits/s dup=1 drop=0 speed=5.93x    frame=32770 fps=142 q=32.0 size=   49788kB time=00:22:46.93 bitrate= 298.4kbits/s dup=1 drop=0 speed=5.92x    frame=32809 fps=142 q=32.0 size=   49874kB time=00:22:48.55 bitrate= 298.5kbits/s dup=1 drop=0 speed=5.92x    frame=32864 fps=142 q=32.0 size=   49973kB time=00:22:50.85 bitrate= 298.6kbits/s dup=1 drop=0 speed=5.91x    frame=32912 fps=142 q=32.0 size=   50060kB time=00:22:52.86 bitrate= 298.7kbits/s dup=1 drop=0 speed=5.91x    frame=32962 fps=142 q=32.0 size=   50162kB time=00:22:54.95 bitrate= 298.9kbits/s dup=1 drop=0 speed= 5.9x    frame=33015 fps=141 q=32.0 size=   50286kB time=00:22:57.17 bitrate= 299.1kbits/s dup=1 drop=0 speed= 5.9x    frame=33064 fps=141 q=32.0 size=   50369kB time=00:22:59.22 bitrate= 299.2kbits/s dup=1 drop=0 speed= 5.9x    frame=33118 fps=141 q=32.0 size=   50467kB time=00:23:01.48 bitrate= 299.3kbits/s dup=1 drop=0 speed=5.89x    frame=33173 fps=141 q=32.0 size=   50572kB time=00:23:03.78 bitrate= 299.4kbits/s dup=1 drop=0 speed=5.89x    frame=33222 fps=141 q=32.0 size=   50683kB time=00:23:05.79 bitrate= 299.6kbits/s dup=1 drop=0 speed=5.89x    frame=33261 fps=141 q=32.0 size=   50810kB time=00:23:07.45 bitrate= 300.0kbits/s dup=1 drop=0 speed=5.88x    frame=33308 fps=141 q=32.0 size=   50931kB time=00:23:09.37 bitrate= 300.3kbits/s dup=1 drop=0 speed=5.88x    frame=33353 fps=141 q=32.0 size=   51021kB time=00:23:11.25 bitrate= 300.4kbits/s dup=1 drop=0 speed=5.87x    frame=33400 fps=141 q=32.0 size=   51130kB time=00:23:13.21 bitrate= 300.6kbits/s dup=1 drop=0 speed=5.87x    frame=33478 fps=141 q=32.0 size=   51226kB time=00:23:16.45 bitrate= 300.5kbits/s dup=1 drop=0 speed=5.87x    frame=33563 fps=141 q=32.0 size=   51355kB time=00:23:20.00 bitrate= 300.5kbits/s dup=1 drop=0 speed=5.87x    frame=33644 fps=141 q=32.0 size=   51450kB time=00:23:23.41 bitrate= 300.3kbits/s dup=1 drop=0 speed=5.87x    frame=33728 fps=141 q=32.0 size=   51543kB time=00:23:26.91 bitrate= 300.1kbits/s dup=1 drop=0 speed=5.88x    frame=33787 fps=141 q=32.0 size=   51682kB time=00:23:29.34 bitrate= 300.4kbits/s dup=1 drop=0 speed=5.87x    frame=33855 fps=141 q=32.0 size=   51766kB time=00:23:32.20 bitrate= 300.3kbits/s dup=1 drop=0 speed=5.87x    frame=33913 fps=141 q=32.0 size=   51857kB time=00:23:34.59 bitrate= 300.3kbits/s dup=1 drop=0 speed=5.87x    frame=33956 fps=141 q=32.0 size=   51971kB time=00:23:36.42 bitrate= 300.6kbits/s dup=1 drop=0 speed=5.87x    frame=34008 fps=141 q=32.0 size=   52113kB time=00:23:38.56 bitrate= 300.9kbits/s dup=1 drop=0 speed=5.86x    frame=34057 fps=140 q=32.0 size=   52213kB time=00:23:40.65 bitrate= 301.1kbits/s dup=1 drop=0 speed=5.86x    frame=34107 fps=140 q=32.0 size=   52300kB time=00:23:42.69 bitrate= 301.1kbits/s dup=1 drop=0 speed=5.85x    frame=34160 fps=140 q=32.0 size=   52385kB time=00:23:44.91 bitrate= 301.2kbits/s dup=1 drop=0 speed=5.85x    frame=34235 fps=140 q=32.0 size=   52486kB time=00:23:48.03 bitrate= 301.1kbits/s dup=1 drop=0 speed=5.85x    frame=34302 fps=140 q=32.0 size=   52597kB time=00:23:50.84 bitrate= 301.1kbits/s dup=1 drop=0 speed=5.85x    frame=34384 fps=140 q=32.0 size=   52712kB time=00:23:54.26 bitrate= 301.1kbits/s dup=1 drop=0 speed=5.85x    frame=34438 fps=140 q=32.0 size=   52792kB time=00:23:56.52 bitrate= 301.1kbits/s dup=1 drop=0 speed=5.85x    frame=34501 fps=140 q=32.0 size=   52894kB time=00:23:59.12 bitrate= 301.1kbits/s dup=1 drop=0 speed=5.85x    frame=34576 fps=140 q=32.0 size=   52999kB time=00:24:02.24 bitrate= 301.0kbits/s dup=1 drop=0 speed=5.85x    frame=34653 fps=140 q=32.0 size=   53094kB time=00:24:05.48 bitrate= 300.9kbits/s dup=1 drop=0 speed=5.85x    frame=34730 fps=140 q=32.0 size=   53221kB time=00:24:08.68 bitrate= 301.0kbits/s dup=1 drop=0 speed=5.85x    frame=34785 fps=140 q=32.0 size=   53314kB time=00:24:10.98 bitrate= 301.0kbits/s dup=1 drop=0 speed=5.85x    frame=34867 fps=140 q=32.0 size=   53469kB time=00:24:14.40 bitrate= 301.2kbits/s dup=1 drop=0 speed=5.85x    frame=34945 fps=140 q=32.0 size=   53571kB time=00:24:17.64 bitrate= 301.1kbits/s dup=1 drop=0 speed=5.85x    frame=35032 fps=140 q=32.0 size=   53701kB time=00:24:21.27 bitrate= 301.0kbits/s dup=1 drop=0 speed=5.85x    frame=35127 fps=140 q=32.0 size=   53824kB time=00:24:25.23 bitrate= 300.9kbits/s dup=1 drop=0 speed=5.86x    [mp4 @ 0x2a07600] Starting second pass: moving the moov atom to the beginning of the file
frame=35189 fps=140 q=-1.0 Lsize=   54774kB time=00:24:27.62 bitrate= 305.7kbits/s dup=1 drop=0 speed=5.85x    
video:44545kB audio:9395kB subtitle:0kB other streams:0kB global headers:0kB muxing overhead: 1.546577%
[libx264 @ 0x2a782a0] frame I:317   Avg QP:21.40  size: 16124
[libx264 @ 0x2a782a0] frame P:11026 Avg QP:24.45  size:  2791
[libx264 @ 0x2a782a0] frame B:23846 Avg QP:28.99  size:   408
[libx264 @ 0x2a782a0] consecutive B-frames:  3.2%  9.6% 29.4% 57.9%
[libx264 @ 0x2a782a0] mb I  I16..4: 25.7% 52.3% 22.0%
[libx264 @ 0x2a782a0] mb P  I16..4:  5.2%  5.8%  1.2%  P16..4: 32.7%  5.1%  4.0%  0.2%  0.0%    skip:45.9%
[libx264 @ 0x2a782a0] mb B  I16..4:  0.2%  0.3%  0.0%  B16..8: 16.0%  1.1%  0.1%  direct: 0.4%  skip:81.8%  L0:41.6% L1:56.6% BI: 1.8%
[libx264 @ 0x2a782a0] 8x8 transform intra:48.6% inter:59.5%
[libx264 @ 0x2a782a0] coded y,uvDC,uvAC intra: 27.6% 54.2% 9.7% inter: 2.0% 4.4% 0.0%
[libx264 @ 0x2a782a0] i16 v,h,dc,p: 44% 32% 18%  7%
[libx264 @ 0x2a782a0] i8 v,h,dc,ddl,ddr,vr,hd,vl,hu: 24% 19% 40%  2%  2%  3%  4%  3%  2%
[libx264 @ 0x2a782a0] i4 v,h,dc,ddl,ddr,vr,hd,vl,hu: 29% 19% 19%  5%  6%  6%  6%  6%  4%
[libx264 @ 0x2a782a0] i8c dc,h,v,p: 44% 26% 24%  6%
[libx264 @ 0x2a782a0] Weighted P-Frames: Y:1.8% UV:1.3%
[libx264 @ 0x2a782a0] ref P L0: 63.9%  8.7% 13.0%  4.2%  3.1%  2.7%  2.4%  1.4%  0.5%  0.0%
[libx264 @ 0x2a782a0] ref B L0: 76.6% 10.6%  5.9%  2.3%  2.0%  1.6%  1.0%
[libx264 @ 0x2a782a0] ref B L1: 91.8%  8.2%
[libx264 @ 0x2a782a0] kb/s:248.63
